<svg xmlns="http://www.w3.org/2000/svg" width="960" height="540" viewBox="0 0 960 540">
  <defs>
    <linearGradient id="bg" x1="0" y1="0" x2="0" y2="1">
      <stop offset="0" stop-color="#0c0f14"/>
      <stop offset="1" stop-color="#07080b"/>
    </linearGradient>
    <radialGradient id="arc" cx="35%" cy="30%" r="70%">
      <stop offset="0" stop-color="#7aa7ff" stop-opacity="0.22"/>
      <stop offset="0.55" stop-color="#7aa7ff" stop-opacity="0.06"/>
      <stop offset="1" stop-color="#7aa7ff" stop-opacity="0"/>
    </radialGradient>
  </defs>
  <rect width="960" height="540" fill="url(#bg)"/>
  <rect width="960" height="540" fill="url(#arc)"/>
  <g opacity="0.95" stroke="#2a3550" stroke-width="2" fill="#111723">
    <rect x="90" y="170" width="140" height="70" rx="16"/>
    <rect x="280" y="120" width="160" height="80"/>
    <rect x="280" y="260" width="160" height="80"/>
    <rect x="500" y="110" width="170" height="86"/>
    <rect x="500" y="262" width="170" height="86"/>
    <rect x="720" y="190" width="150" height="86"/>
  </g>
  <g stroke="#1f2638" stroke-width="4" fill="none" opacity="0.85">
    <path d="M230 205 C260 205 250 160 280 160"/>
    <path d="M230 205 C260 205 250 300 280 300"/>
    <path d="M440 160 C470 160 470 150 500 150"/>
    <path d="M440 300 C470 300 470 305 500 305"/>
    <path d="M670 150 C700 150 700 230 720 230"/>
    <path d="M670 305 C700 305 700 230 720 230"/>
  </g>
  <circle cx="870" cy="235" r="10" fill="#d7b46a" opacity="0.75"/>
</svg>

