<svg xmlns="http://www.w3.org/2000/svg" width="960" height="540" viewBox="0 0 960 540">
  <defs>
    <linearGradient id="bg" x1="0" y1="0" x2="0" y2="1">
      <stop offset="0" stop-color="#0c0f14"/>
      <stop offset="1" stop-color="#07080b"/>
    </linearGradient>
    <radialGradient id="glow" cx="30%" cy="30%" r="70%">
      <stop offset="0" stop-color="#7aa7ff" stop-opacity="0.35"/>
      <stop offset="0.5" stop-color="#7aa7ff" stop-opacity="0.10"/>
      <stop offset="1" stop-color="#7aa7ff" stop-opacity="0"/>
    </radialGradient>
  </defs>
  <rect width="960" height="540" fill="url(#bg)"/>
  <rect width="960" height="540" fill="url(#glow)"/>
  <g opacity="0.9">
    <path d="M120 380 C220 320 260 420 360 360 C440 312 520 330 600 290 C700 235 760 300 860 240" fill="none" stroke="#2a3550" stroke-width="3"/>
    <path d="M120 260 C210 210 280 280 360 240 C430 206 520 220 600 190 C700 145 780 180 860 140" fill="none" stroke="#1f2638" stroke-width="3"/>
    <circle cx="210" cy="335" r="8" fill="#d7b46a"/>
    <circle cx="420" cy="320" r="6" fill="#ff6a3d"/>
    <circle cx="640" cy="280" r="7" fill="#7aa7ff"/>
    <circle cx="820" cy="230" r="6" fill="#d7b46a"/>
  </g>
  <g opacity="0.55">
    <rect x="80" y="90" width="240" height="18" rx="9" fill="#111723"/>
    <rect x="80" y="120" width="190" height="14" rx="7" fill="#111723"/>
    <rect x="80" y="146" width="220" height="14" rx="7" fill="#111723"/>
  </g>
</svg>

